<?xml version="1.0" ?><!DOCTYPE svg  PUBLIC '-//W3C//DTD SVG 1.1//EN'  'http://www.w3.org/Graphics/SVG/1.1/DTD/svg11.dtd'><svg height="8.4666mm" style="shape-rendering:geometricPrecision; text-rendering:geometricPrecision; image-rendering:optimizeQuality; fill-rule:evenodd; clip-rule:evenodd" version="1.1" viewBox="0 0 846.66 846.66" width="8.4666mm" xml:space="preserve" xmlns="http://www.w3.org/2000/svg" xmlns:xlink="http://www.w3.org/1999/xlink"><defs><style type="text/css">
   <![CDATA[
    .fil0 {fill:black;fill-rule:nonzero}
   ]]>
  </style></defs><g id="Layer_x0020_1"><path class="fil0" d="M538.5 568.94l-272.77 0c-9.69,44.17 -48.97,75.79 -94.33,75.79 -45.35,0 -84.64,-31.62 -94.33,-75.79l-48.29 0c-11.47,0 -20.78,-9.31 -20.78,-20.78l0 -178.33c0,-11.47 9.31,-20.78 20.78,-20.78l10.41 0 0 -37.18c0,-60.51 49.44,-109.94 109.95,-109.94 95.85,0 191.71,0 287.56,0 84.43,0 156.18,63.52 166.61,147.12l36.24 0c109.56,0 199.11,89.55 199.11,199.11 0,11.47 -9.3,20.78 -20.78,20.78l-90.72 0c-9.69,44.17 -48.97,75.79 -94.33,75.79 -45.36,0 -84.64,-31.62 -94.33,-75.79zm-272.77 -41.56l272.77 0c9.69,-44.17 48.97,-75.79 94.33,-75.79 45.36,0 84.64,31.62 94.33,75.79l68.56 0c-10.38,-77.79 -77.5,-136.77 -156.17,-136.77 -196.66,0 -393.32,0 -589.99,0l0 136.77 27.51 0c9.69,-44.17 48.98,-75.79 94.33,-75.79 45.36,0 84.64,31.62 94.33,75.79zm-94.33 -34.23c-30.38,0 -55.01,24.63 -55.01,55.01 0,30.38 24.63,55.01 55.01,55.01 30.38,0 55.01,-24.63 55.01,-55.01 0,-30.38 -24.63,-55.01 -55.01,-55.01zm461.43 0c-30.38,0 -55.01,24.63 -55.01,55.01 0,30.38 24.63,55.01 55.01,55.01 30.38,0 55.01,-24.63 55.01,-55.01 0,-30.38 -24.63,-55.01 -55.01,-55.01zm-411.96 -144.1l0 -105.56 -71.73 0c-37.57,0 -68.38,30.82 -68.38,68.38l0 37.18 140.11 0zm41.56 -105.56l0 105.56 118.93 0 0 -105.56 -118.93 0zm160.49 0l0 105.56 138.39 0c-10.13,-60.5 -63.08,-105.56 -124.61,-105.56l-13.78 0z"/></g></svg>